<?xml version="1.0" encoding="UTF-8"?>
<svg id="Capa_1" data-name="Capa 1" xmlns="http://www.w3.org/2000/svg" viewBox="0 0 325.51 391.4">
  <defs>
    <style>
      .cls-1 {
        fill: none;
      }

      .cls-2 {
        fill: #801d1f;
      }
    </style>
  </defs>
  <path class="cls-2" d="M241.49,211.48l-.13-.11c-2.28-2.11-5.95-4.86-10.07-7.53-4.1-2.66-8.02-4.83-10.69-5.94l-.11-.02c-3.53-1.47-7.08-2.56-10.61-3.29,1.74-.4,3.49-.89,5.24-1.49l.09-.02c2.75-.93,6.8-2.82,11.09-5.19,4.29-2.38,8.14-4.88,10.55-6.83l.13-.11c25.15-20.34,38.5-55.55,31.76-83.82-.98-4.22-2.48-8.6-4.22-12.31-1.7-3.68-3.48-6.41-4.99-7.72-1.21-1.03-2.86-1.76-4.66-2.01-1.56-.22-3.08-.07-4.31.43l-.48.09-.45.37c-.13.09-.34.25-.64.47-.46.31-1.07.77-1.86,1.4-1.42,1.08-3.21,2.51-5.13,4.1-4.15,3.42-8.11,6.88-10.35,9.03l-.15.16c-11.53,11.07-21.3,25.42-27.52,40.46-.89,2.26-3.86,10.62-6.48,18.5-2.74,8.12-4.21,12.44-5.09,14.87-.3.83-.72,1.95-1,2.51-.02.04-.09.19-.18.29-.07.11-.13.18-.2.25-.21.15-.45.24-.7.2-.46-.02-.67-.34-.76-.49-.08-.18-.1-.31-.11-.37-.02-.11-.02-.25,0-.34v-.03c.03-.5.51-4.27.89-7.29l.09-.71c4.5-33.32,19.54-61.46,43.53-81.4l.09-.08c2.24-1.83,3.53-3.09,4.33-4.18.75-1.04,1.13-2,1.33-3.35v-.06c.52-3.75-1.36-7.63-4.62-9.57l-.2-.1c-.84-.47-2.11-.79-3.02-.97-1.38-.24-2.99-.43-4.77-.52-3.71-.2-7.81.03-11.31.6-7.85,1.35-17.63,5.22-24.38,9.65l-.11.07c-6.64,4.36-12.73,9.77-18.05,15.97-.46.54-.92,1.08-1.38,1.63-.03.03-.06.07-.08.11-.3.37-.6.74-.89,1.11-1.76,2.23-3.43,4.55-4.99,6.94-.26.4-.52.8-.77,1.2-.81,1.29-1.6,2.6-2.35,3.94,0,0,0,0,0-.02,0,0,0,0,0,.02-.28-.5-.56-.99-.84-1.47-.29-.49-.58-.97-.88-1.46-.29-.48-.6-.97-.9-1.44-.29-.46-.6-.93-.89-1.38-.02-.02-.02-.03-.03-.04-.62-.94-1.26-1.87-1.92-2.79-.29-.4-.58-.8-.88-1.2-.09-.12-.18-.24-.26-.36-.54-.71-1.09-1.42-1.64-2.12-1.39-1.74-2.84-3.43-4.34-5.06-.3-.33-.61-.65-.91-.97-.91-.97-1.84-1.91-2.79-2.82-.05-.05-.09-.09-.14-.13-3.77-3.62-7.82-6.86-12.09-9.67l-.1-.07c-6.75-4.43-16.53-8.3-24.38-9.65-3.5-.56-7.61-.79-11.31-.6-1.78.09-3.4.29-4.77.52-.91.17-2.19.5-3.02.97l-.21.1c-3.26,1.94-5.13,5.82-4.61,9.57v.06c.2,1.35.58,2.31,1.33,3.35.8,1.09,2.1,2.35,4.32,4.18l.09.08c24,19.95,39.04,48.08,43.53,81.4l.09.71c.38,3.02.86,6.79.89,7.29v.38c-.02.06-.03.19-.12.37-.09.15-.29.47-.76.49-.25.03-.48-.06-.7-.2-.07-.07-.13-.14-.2-.25-.09-.11-.16-.25-.18-.29-.29-.57-.7-1.69-1-2.51-.88-2.43-2.35-6.75-5.08-14.87-2.64-7.88-5.59-16.24-6.49-18.5-6.21-15.04-15.99-29.39-27.52-40.46l-.15-.16c-2.24-2.15-6.21-5.61-10.36-9.03-1.92-1.59-3.7-3.02-5.13-4.1-.79-.63-1.39-1.09-1.86-1.4-.29-.22-.5-.38-.64-.47l-.44-.37-.47-.09c-1.24-.51-2.76-.66-4.31-.43-1.8.25-3.46.98-4.66,2.01-1.51,1.31-3.3,4.04-5,7.72-1.74,3.72-3.24,8.09-4.22,12.31-6.74,28.26,6.61,63.48,31.77,83.82l.13.11c2.41,1.95,6.26,4.45,10.55,6.83,4.3,2.37,8.35,4.27,11.1,5.19l.09.02c1.75.6,3.5,1.09,5.23,1.49-3.52.73-7.08,1.82-10.6,3.29l-.11.02c-2.68,1.11-6.59,3.27-10.69,5.94-4.13,2.68-7.8,5.42-10.08,7.53l-.13.11c-23.7,22-34.62,58.07-25.95,85.8,1.26,4.13,3.06,8.4,5.05,12,1.95,3.52,3.9,6.14,5.52,7.34,1.25.97,2.95,1.56,4.78,1.7,1.56.11,3.06-.14,4.27-.71l.47-.14.42-.4c.12-.09.33-.25.6-.46.44-.38,1.02-.88,1.77-1.53,1.35-1.21,3.02-2.74,4.85-4.46,3.9-3.68,7.62-7.43,9.7-9.72l.13-.16c10.76-11.82,19.52-26.84,24.71-42.27.73-2.31,3.11-10.84,5.21-18.9,2.18-8.29,3.35-12.67,4.06-15.18.24-.83.58-1.99.82-2.57.02-.04.09-.19.16-.31.06-.11.14-.2.2-.25.19-.18.42-.27.68-.27.45.02.69.29.79.47.09.15.11.28.13.34.03.12.05.27.03.36v.03c0,.49-.23,4.27-.39,7.32l-.04.71c-2.22,33.54-15.31,62.66-37.88,84.18l-.09.09c-2.1,1.99-3.3,3.33-4.01,4.46-.69,1.07-1.02,2.07-1.11,3.42v.07c-.27,3.77,1.87,7.52,5.25,9.23l.21.1c.88.39,2.15.61,3.09.75,1.38.15,3,.22,4.79.2,3.7-.07,7.79-.57,11.23-1.38,7.75-1.88,17.23-6.4,23.66-11.28l.12-.08c10.49-7.97,19.3-18.74,25.5-31.04,6.19,12.3,15,23.06,25.49,31.04l.11.08c6.44,4.88,15.92,9.41,23.67,11.28,3.44.82,7.52,1.31,11.23,1.38,1.79.02,3.41-.05,4.79-.2.93-.13,2.21-.36,3.09-.75l.21-.1c3.38-1.71,5.52-5.46,5.25-9.23v-.07c-.08-1.35-.41-2.35-1.1-3.42-.71-1.13-1.92-2.47-4.02-4.46l-.08-.09c-22.57-21.53-35.67-50.64-37.88-84.18l-.05-.71c-.16-3.05-.38-6.83-.38-7.32v-.03c-.02-.09,0-.24.03-.36,0-.06.04-.19.13-.34.11-.18.34-.45.79-.47.27,0,.49.09.69.27.06.06.13.15.19.25.07.12.16.27.16.31.24.58.58,1.74.82,2.57.72,2.51,1.89,6.89,4.06,15.18,2.1,8.07,4.48,16.6,5.21,18.9,5.19,15.43,13.96,30.44,24.71,42.27l.14.16c2.08,2.29,5.8,6.04,9.7,9.72,1.83,1.72,3.5,3.25,4.86,4.46.74.65,1.32,1.15,1.77,1.53.26.21.47.37.59.46l.42.4.47.14c1.21.57,2.71.83,4.27.71,1.83-.14,3.53-.73,4.77-1.7,1.62-1.2,3.57-3.82,5.52-7.34,2-3.6,3.8-7.87,5.06-12,8.66-27.73-2.26-63.8-25.96-85.8ZM186.29,196.03c-7.35.97-12.28,3.53-15.62,7.01l-.07.07c-4.87,5.12-6.35,12.23-7.15,19.29,0,.03-.02.06-.03.08,0,.03-.03.06-.05.08-.12.14-.34.22-.61.22-.13,0-.25-.03-.36-.06-.04-.02-.08-.03-.12-.06-.08-.04-.14-.1-.17-.16-.02-.03-.03-.07-.04-.11-.79-7.03-2.27-14.1-7.08-19.22-.08-.08-.16-.16-.25-.25-3.33-3.42-8.22-5.94-15.51-6.9-.51-.07-.51-.6,0-.67,2.66-.38,5.01-.97,7.09-1.72,6.15-2.22,9.87-5.88,12.14-10.17.08-.15.16-.3.23-.46,1.61-3.34,2.55-7.12,3.06-10.99.04-.3.07-.6.11-.9.02-.2.05-.4.07-.61l.05-.49c.03-.33.07-.66.09-1,0-.04.02-.07.04-.11.02-.04.04-.07.07-.1.03-.03.07-.06.1-.08s.08-.05.12-.07c.11-.04.23-.07.36-.07.22,0,.41.07.53.18.03.02.05.04.07.07.02.02.04.05.05.07.02.03.02.06.03.09.09,1.06.2,2.12.34,3.19.55,4.06,1.57,8,3.37,11.45,1.41,2.6,3.36,4.96,6.08,6.9,3.18,2.28,7.42,3.98,13.06,4.8.51.07.51.6,0,.67Z"/>
  <rect class="cls-1" width="325.51" height="391.4" transform="translate(325.51 391.4) rotate(180)"/>
</svg>