<?xml version="1.0" encoding="UTF-8"?>
<svg id="Capa_1" data-name="Capa 1" xmlns="http://www.w3.org/2000/svg" viewBox="0 0 815 300.85">
  <defs>
    <style>
      .cls-1 {
        fill: none;
      }

      .cls-2 {
        fill: #fff7e3;
      }
    </style>
  </defs>
  <path class="cls-1" d="M813.81,0H1.19v300.85h812.61V0Z"/>
  <g>
    <path class="cls-2" d="M433.41,190.45c-8.69-4.44-15.55-10.65-20.56-18.64-5.01-7.99-7.51-16.99-7.51-27.01s2.5-18.48,7.51-26.52c5.01-8.03,11.79-14.37,20.35-19,8.56-4.63,17.98-6.94,28.29-6.94,7,0,13.87,1.2,20.63,3.61,6.76,2.41,13.02,6.02,18.79,10.85l-11.21,25.66c-1.61-6.81-3.85-13.07-6.73-18.79-2.88-5.72-6.17-10.25-9.86-13.62-3.69-3.35-7.43-5.04-11.21-5.04-5.68,0-10.83,2.43-15.46,7.3-4.63,4.87-8.25,11.42-10.85,19.64-2.6,8.22-3.9,17.16-3.9,26.8,0,8.22,1.11,15.65,3.33,22.26,2.22,6.62,5.32,11.81,9.29,15.6,3.97,3.78,8.46,5.68,13.47,5.68,5.86,0,11.72-2.86,17.59-8.58,5.85-5.72,10.54-13.36,14.03-22.9l7.37,27.09c-10.21,6.15-21.69,9.22-34.46,9.22-10.59,0-20.24-2.22-28.93-6.66h.01Z"/>
    <path class="cls-2" d="M520.23,193.82c-4.99-2.09-8.94-5.1-11.9-9.04-2.95-3.94-4.43-8.55-4.43-13.84,0-6.02,1.54-11.01,4.61-14.95,3.07-3.94,7.07-7.04,11.99-9.32,4.92-2.27,11.26-4.64,19-7.1,7.26-2.46,13.25-4.83,18-7.1,4.73-2.27,8.67-5.29,11.8-9.04s4.7-8.4,4.7-13.93c0-4.55-1.45-8.12-4.34-10.7-2.89-2.59-6.3-3.88-10.24-3.88-4.3,0-8.06,1.35-11.26,4.06-3.21,2.7-4.8,6.46-4.8,11.26,0,2.83.7,5.45,2.13,7.85,1.41,2.4,3.48,4.34,6.18,5.81-1.48,2.34-3.57,4.13-6.27,5.35-2.7,1.24-5.6,1.84-8.67,1.84-4.8,0-8.92-1.26-12.36-3.78-3.45-2.52-5.16-6.05-5.16-10.61,0-7.75,3.6-13.74,10.8-17.99,7.2-4.25,15.9-6.37,26.11-6.37,7.62,0,14.88,1.29,21.78,3.88s12.45,6.4,16.7,11.44c4.24,5.05,6.37,11.2,6.37,18.46v44.84c0,4.56.49,9.01,1.48,13.38.98,4.37,2.15,7.66,3.51,9.87-8.12-2.83-16.36-4.24-24.73-4.24-4.56,0-8.73.35-12.55,1.02-3.81.68-8.67,1.7-14.58,3.05-3.21.73-6.37,1.41-9.5,2.03-3.13.62-5.94.92-8.39.92-5.66,0-10.98-1.05-15.96-3.14h0ZM567.74,128.87c-1.48,1.35-4.99,4.13-10.52,8.31-4.67,3.45-8.4,6.4-11.17,8.86-2.77,2.46-5.14,5.45-7.1,8.94-1.97,3.51-2.95,7.42-2.95,11.72,0,7.38,2.3,12.8,6.92,16.24,4.61,3.45,10.42,5.16,17.44,5.16,2.59,0,5.04-.19,7.38-.55v-58.68h-.01Z"/>
    <path class="cls-2" d="M675.57,64.12c5.96,3.69,8.93,8.7,8.93,15.06,0,4.08-1.45,7.24-4.34,9.45-2.89,2.21-6.38,3.32-10.46,3.32-2.95,0-5.7-.57-8.25-1.7-2.56-1.13-4.57-2.84-6.04-5.1,3.75-2.61,5.61-6.29,5.61-11.06,0-3.52-1.13-6.56-3.4-9.1-2.27-2.56-5.28-3.83-9.02-3.83-4.43,0-8.32,1.79-11.66,5.36-3.35,3.57-5.02,8.2-5.02,13.87,0,4.32,1.3,8.42,3.92,12.34,2.61,3.92,6.64,7.01,12.09,9.28h14.3v2.89h-14.3v65.69h-.17c0,5.33.25,9.48.77,12.42.51,2.95,1.73,6.76,3.65,11.41h-39.49c1.93-4.09,3.15-7.51,3.66-10.3.51-2.78.76-6.38.76-10.81v-35.4h.17v-33.01h-8.34v-2.89h8.34c0-14.3,3.4-25.11,10.21-32.42,6.81-7.32,15.6-10.98,26.38-10.98,8.51,0,15.74,1.84,21.7,5.53v-.02Z"/>
    <path class="cls-2" d="M683.48,189.9c-7.47-4.82-13.08-11.11-16.84-18.88-3.77-7.77-5.65-16.05-5.65-24.81,0-9.37,2.25-18.17,6.76-26.38,4.5-8.21,11.04-14.84,19.63-19.9,8.58-5.06,18.66-7.59,30.27-7.59,8.15,0,15.02,1.27,20.64,3.79,5.61,2.53,9.81,5.9,12.59,10.09,2.78,4.2,4.17,8.77,4.17,13.7,0,5.68-1.82,10.92-5.46,15.73-3.64,4.82-8.67,8.61-15.09,11.39-6.42,2.78-13.64,4.17-21.66,4.17-6.05,0-11.54-.98-16.48-2.96,1.85,9.13,5.58,16.63,11.2,22.5,5.61,5.86,12.43,8.8,20.46,8.8,6.04,0,11.69-2.19,16.94-6.58,5.25-4.38,9.35-10.15,12.31-17.31l1.48,1.11c-1.6,8.77-5,16.2-10.18,22.31-5.19,6.11-11.2,10.64-18.05,13.61-6.85,2.96-13.54,4.44-20.09,4.44-10.49,0-19.47-2.41-26.94-7.22v.02ZM722.92,139.45c4.14-5.74,6.2-12.93,6.2-21.57,0-6.54-1.2-11.97-3.61-16.3-2.41-4.32-5.4-6.48-8.98-6.48-4.44,0-8.31,2.01-11.57,6.01-3.27,4.01-5.77,9.13-7.5,15.37-1.73,6.23-2.59,12.56-2.59,18.98,0,3.58.3,7.1.92,10.56,3.46,1.36,6.79,2.03,10,2.03,7.28,0,12.99-2.87,17.13-8.61h0Z"/>
    <path class="cls-2" d="M300.97,190c-7.51-4.82-13.16-11.1-16.95-18.88-3.79-7.77-5.68-16.04-5.68-24.8,0-9.38,2.26-18.17,6.8-26.38,4.53-8.2,11.11-14.84,19.74-19.9,8.63-5.06,18.78-7.59,30.45-7.59,8.2,0,15.12,1.27,20.76,3.8,5.65,2.53,9.87,5.9,12.66,10.09,2.79,4.2,4.19,8.77,4.19,13.7,0,5.68-1.83,10.92-5.49,15.73-3.66,4.82-8.73,8.61-15.18,11.39-6.45,2.78-13.72,4.16-21.79,4.16-6.08,0-11.62-.99-16.58-2.96,1.86,9.14,5.62,16.63,11.27,22.49,5.65,5.87,12.5,8.79,20.57,8.79,6.08,0,11.76-2.19,17.04-6.57,5.28-4.37,9.4-10.15,12.39-17.31l1.49,1.11c-1.62,8.77-5.02,16.19-10.24,22.31-5.22,6.11-11.27,10.64-18.16,13.61-6.89,2.97-13.62,4.45-20.2,4.45-10.56,0-19.59-2.41-27.1-7.22ZM340.64,139.56c4.16-5.74,6.24-12.92,6.24-21.56,0-6.54-1.21-11.96-3.63-16.29s-5.44-6.48-9.03-6.48c-4.47,0-8.35,2.01-11.64,6.01-3.29,4.02-5.81,9.14-7.54,15.36-1.73,6.23-2.6,12.55-2.6,18.98,0,3.59.31,7.1.93,10.56,3.47,1.36,6.82,2.04,10.06,2.04,7.32,0,13.06-2.87,17.23-8.61h-.02Z"/>
    <path class="cls-2" d="M303.2,239.25c-5.01-2.09-9.77-4.65-14.27-7.7-4.5-3.04-9.98-7.03-16.46-11.97-7.13-5.51-12.47-9.41-16.04-11.68-5.26-3.71-10.08-6.53-14.48-8.48-4.41-1.94-8.63-2.83-12.66-2.63,4.22-4.19,7.08-8.28,8.58-12.33,1.5-4.04,2.25-8.76,2.25-14.18v-62.13c0-4.28-.76-7.53-2.25-9.76-1.5-2.23-3.94-3.35-7.31-3.35-2.91,0-5.88,1-8.94,2.99-3.05,2-5.56,4.88-7.53,8.62-1.97,3.75-2.96,8.1-2.96,13.04,0,5.32,1.36,9.81,4.08,13.47,2.72,3.65,6.66,5.49,11.82,5.49-1.12,4.09-2.94,7.13-5.41,9.12-2.49,2-5.33,2.99-8.52,2.99-3.57,0-6.75-1.02-9.56-3.06-2.81-2.04-5.01-4.75-6.61-8.12-1.6-3.38-2.39-7.01-2.39-10.91,0-6.93,1.9-13.14,5.69-18.6,3.8-5.46,8.9-9.74,15.33-12.83,6.42-3.09,13.38-4.63,20.89-4.63l32.64-.14c-1.69,3.71-2.75,6.84-3.17,9.41-.42,2.57-.63,6.32-.63,11.26l.14,76.67c0,7.78,1.88,14.58,5.62,20.38,3.75,5.8,8.52,10.22,14.27,13.25,5.77,3.04,11.56,4.56,17.38,4.56,3.94,0,7.59-1.02,10.97-3.06,3.38-2.04,6.07-4.84,8.09-8.41,2.01-3.57,3.02-7.57,3.02-12.04l2.11-.14c5.07,0,9.12,1.67,12.17,4.99,3.05,3.32,4.57,7.22,4.57,11.68,0,3.61-.97,7.05-2.88,10.33-1.92,3.28-4.8,5.94-8.65,7.99s-8.49,3.06-13.93,3.06c-4.97,0-9.97-1.04-14.99-3.13v.02Z"/>
    <path class="cls-2" d="M730.96,75.21c-3.94,4.77-10.14,7.34-15.44,6.82-.4-.03-.69-.29-.72-.61-.14-2.26.24-5.58,5.14-9.5,6-4.76,8.41-8.89,8.35-12.8-.03-.33.3-.62.74-.63.16,0,.32.04.45.11,1.91,1,3.29,2.45,4.06,4.2,1.62,3.56.81,8.29-2.58,12.41Z"/>
    <path class="cls-2" d="M723.47,59.91c.08,2.25-.4,5.56-5.35,9.47-6.05,4.77-8.54,8.88-8.6,12.76.01.33-.31.61-.73.64-.16-.01-.32-.05-.44-.11-1.86-1-3.15-2.43-3.86-4.16-1.47-3.55-.54-8.24,2.93-12.36,4.01-4.75,10.18-7.34,15.37-6.84.39.03.66.28.68.59v.02Z"/>
    <path class="cls-2" d="M147.8,169.75l-.07-.06c-1.14-1.06-2.99-2.44-5.06-3.79-2.06-1.34-4.03-2.43-5.38-2.98h-.05c-1.77-.75-3.56-1.3-5.33-1.67.88-.2,1.75-.45,2.63-.75h.05c1.38-.48,3.42-1.43,5.58-2.62,2.16-1.2,4.09-2.45,5.31-3.43l.07-.05c12.65-10.22,19.35-27.93,15.97-42.14-.49-2.12-1.25-4.32-2.12-6.19-.85-1.85-1.75-3.22-2.51-3.88-.61-.52-1.44-.89-2.34-1.01-.79-.11-1.55-.04-2.17.22l-.24.05-.23.19c-.07.05-.17.12-.32.23-.23.16-.54.39-.93.7-.72.54-1.61,1.26-2.58,2.06-2.09,1.72-4.08,3.46-5.2,4.54l-.08.08c-5.8,5.57-10.71,12.78-13.83,20.34-.45,1.14-1.94,5.34-3.26,9.3-1.37,4.08-2.12,6.25-2.56,7.48-.15.42-.36.98-.5,1.26,0,.02-.05.09-.09.15-.04.06-.07.09-.1.13-.11.07-.23.12-.35.1-.23-.01-.34-.17-.38-.25-.04-.09-.05-.16-.06-.19,0-.05,0-.13,0-.17v-.02c.02-.25.26-2.14.45-3.66l.05-.36c2.26-16.75,9.82-30.9,21.88-40.92l.05-.04c1.12-.92,1.77-1.55,2.18-2.1.37-.52.57-1,.67-1.68v-.03c.26-1.89-.68-3.84-2.32-4.81l-.1-.05c-.42-.23-1.06-.4-1.52-.49-.7-.12-1.5-.22-2.4-.26-1.86-.1-3.93.02-5.68.3-3.95.68-8.86,2.63-12.26,4.85l-.05.04c-3.34,2.19-6.4,4.91-9.08,8.03-.23.27-.46.54-.69.82-.02.02-.03.04-.04.05-.15.19-.3.37-.45.56-.88,1.12-1.72,2.29-2.51,3.49-.13.2-.26.4-.39.61-.41.65-.8,1.31-1.18,1.98,0,0,0,0,0,0,0,0,0,0,0,0-.14-.25-.28-.5-.42-.74-.15-.25-.29-.49-.44-.73-.15-.24-.3-.49-.45-.72-.15-.23-.3-.47-.45-.69,0,0-.01-.02-.02-.02-.31-.47-.63-.94-.97-1.4-.14-.2-.29-.4-.44-.6-.05-.06-.09-.12-.13-.18-.27-.36-.55-.72-.82-1.07-.7-.88-1.43-1.72-2.18-2.54-.15-.16-.3-.33-.46-.49-.46-.49-.93-.96-1.4-1.42-.02-.02-.05-.05-.07-.07-1.89-1.82-3.93-3.45-6.08-4.86l-.05-.04c-3.4-2.23-8.31-4.17-12.26-4.85-1.76-.28-3.82-.4-5.68-.3-.9.05-1.71.14-2.4.26-.46.09-1.1.25-1.52.49l-.11.05c-1.64.98-2.58,2.93-2.32,4.81v.03c.1.68.29,1.16.67,1.68.4.55,1.05,1.18,2.17,2.1l.05.04c12.06,10.03,19.63,24.17,21.89,40.92l.05.36c.19,1.52.43,3.41.45,3.66v.19s-.02.09-.06.19c-.05.07-.15.23-.38.25-.12.02-.24-.03-.35-.1-.04-.04-.07-.07-.1-.13-.05-.05-.08-.13-.09-.15-.14-.28-.35-.85-.5-1.26-.44-1.22-1.18-3.39-2.56-7.48-1.33-3.96-2.81-8.17-3.26-9.3-3.12-7.56-8.04-14.78-13.83-20.34l-.07-.08c-1.13-1.08-3.12-2.82-5.21-4.54-.96-.8-1.86-1.52-2.58-2.06-.4-.32-.7-.55-.93-.7-.15-.11-.25-.19-.32-.23l-.22-.19-.24-.05c-.62-.26-1.39-.33-2.17-.22-.91.13-1.74.49-2.34,1.01-.76.66-1.66,2.03-2.52,3.88-.87,1.87-1.63,4.07-2.12,6.19-3.39,14.21,3.32,31.91,15.97,42.14l.07.05c1.21.98,3.15,2.24,5.3,3.43,2.16,1.19,4.2,2.14,5.58,2.61h.05c.88.31,1.76.56,2.63.76-1.77.37-3.56.91-5.33,1.65h-.05c-1.35.57-3.31,1.66-5.38,3-2.07,1.35-3.92,2.73-5.07,3.79l-.07.06c-11.91,11.06-17.4,29.19-13.05,43.13.63,2.08,1.54,4.22,2.54,6.03.98,1.77,1.96,3.09,2.77,3.69.63.49,1.48.78,2.4.85.78.06,1.54-.07,2.14-.36l.24-.07.21-.2c.06-.05.16-.13.3-.23.22-.19.51-.44.89-.77.68-.61,1.52-1.38,2.44-2.24,1.96-1.85,3.83-3.73,4.88-4.89l.07-.08c5.41-5.94,9.81-13.49,12.42-21.25.37-1.16,1.56-5.45,2.62-9.5,1.09-4.17,1.68-6.37,2.04-7.63.12-.42.29-1,.41-1.29,0-.02.05-.09.08-.16.03-.05.07-.1.1-.13.09-.09.21-.14.34-.14.23,0,.35.14.4.24.05.07.06.14.07.17.02.06.02.14.02.18v.02c0,.25-.12,2.14-.2,3.68l-.02.36c-1.12,16.86-7.7,31.5-19.04,42.32l-.05.05c-1.05,1-1.66,1.67-2.02,2.24-.35.54-.51,1.04-.56,1.72v.04c-.14,1.89.94,3.78,2.64,4.64l.11.05c.44.19,1.08.31,1.56.38.7.07,1.51.11,2.41.1,1.86-.04,3.92-.28,5.65-.7,3.89-.94,8.66-3.22,11.9-5.67l.06-.04c5.27-4.01,9.7-9.42,12.82-15.61,3.11,6.18,7.54,11.6,12.81,15.61l.06.04c3.24,2.45,8,4.73,11.9,5.67,1.73.41,3.78.66,5.65.7.9.01,1.71-.03,2.41-.1.47-.07,1.11-.18,1.56-.38l.1-.05c1.7-.86,2.77-2.74,2.64-4.64v-.04c-.04-.68-.21-1.18-.55-1.72-.36-.57-.96-1.24-2.02-2.24l-.04-.05c-11.35-10.82-17.93-25.46-19.04-42.32l-.02-.36c-.08-1.54-.19-3.43-.19-3.68v-.02s0-.12.02-.18c0-.03.02-.1.07-.17.05-.09.17-.23.4-.24.14,0,.25.05.35.14.03.03.07.07.09.13.04.06.08.14.08.16.12.29.29.88.41,1.29.36,1.26.95,3.47,2.04,7.63,1.06,4.05,2.25,8.34,2.62,9.5,2.61,7.76,7.02,15.3,12.42,21.25l.07.08c1.05,1.15,2.91,3.04,4.87,4.89.92.86,1.76,1.63,2.44,2.24.37.33.66.58.89.77.13.1.24.18.3.23l.21.2.24.07c.61.29,1.36.42,2.15.36.92-.07,1.77-.37,2.4-.85.82-.6,1.79-1.92,2.77-3.69,1-1.81,1.91-3.96,2.54-6.03,4.36-13.94-1.14-32.07-13.05-43.13ZM120.04,161.99c-3.7.49-6.17,1.77-7.85,3.52l-.03.03c-2.45,2.57-3.19,6.15-3.59,9.7,0,.02,0,.03-.02.04,0,.02-.02.03-.02.04-.06.07-.17.11-.3.11-.07,0-.13-.01-.18-.03-.02,0-.04-.02-.06-.03-.04-.02-.07-.05-.09-.08,0-.02-.02-.03-.02-.05-.4-3.53-1.14-7.09-3.56-9.66-.04-.04-.08-.08-.12-.12-1.68-1.72-4.13-2.98-7.8-3.47-.26-.04-.26-.3,0-.34,1.34-.19,2.52-.49,3.56-.86,3.09-1.12,4.96-2.96,6.1-5.11.04-.07.08-.15.12-.23.81-1.68,1.28-3.58,1.54-5.52.02-.15.04-.3.05-.45.01-.1.02-.2.03-.3l.02-.25c.02-.16.03-.33.05-.5,0-.02.01-.04.02-.05,0-.02.02-.04.04-.05.02-.02.03-.03.05-.04.02-.01.04-.02.06-.03.05-.02.12-.03.18-.03.11,0,.21.03.27.09.02,0,.02.02.04.04,0,0,.02.02.02.04,0,.02.01.03.02.05.05.53.1,1.07.17,1.6.28,2.04.79,4.02,1.69,5.75.71,1.31,1.69,2.49,3.05,3.47,1.6,1.14,3.73,2,6.57,2.41.26.04.26.3,0,.34Z"/>
    <path class="cls-2" d="M750.28,236.13h-2.96v-2.43h-.06c-1.36,1.88-3.54,2.87-6.04,2.87-5.67,0-8.88-4.41-8.88-8.91,0-4.16,2.84-9.06,8.88-9.06,2.37,0,4.56.99,5.79,2.56h.06v-7.83h3.21v22.81ZM747.32,227.62c0-3.64-2.62-6.1-5.92-6.1-3.94,0-5.86,3.42-5.86,6.1,0,3.08,2.43,6.01,5.82,6.01s5.95-2.74,5.95-6.01Z"/>
    <path class="cls-2" d="M727.73,236.24h-3.21v-2.65h-.06c-1.23,2.09-3.48,3.08-5.79,3.08-5.76,0-9.06-4.41-9.06-8.91,0-4.16,2.93-9.06,9.06-9.06,2.37,0,4.56.99,5.79,2.87h.06v-2.4h3.21v17.07ZM724.59,227.74c0-3.64-2.62-6.1-5.92-6.1-3.95,0-5.86,3.42-5.86,6.1,0,3.08,2.43,6.01,5.82,6.01s5.95-2.74,5.95-6.01Z"/>
    <path class="cls-2" d="M705,236.13h-2.96v-2.43h-.06c-1.36,1.88-3.54,2.87-6.04,2.87-5.67,0-8.88-4.41-8.88-8.91,0-4.16,2.84-9.06,8.88-9.06,2.37,0,4.56.99,5.79,2.56h.06v-7.83h3.21v22.81ZM702.04,227.62c0-3.64-2.62-6.1-5.92-6.1-3.95,0-5.86,3.42-5.86,6.1,0,3.08,2.43,6.01,5.82,6.01s5.95-2.74,5.95-6.01Z"/>
    <path class="cls-2" d="M682.44,219.06v17.07h-3.21v-17.07h3.21ZM682.44,213.32v3.76h-3.21v-3.76h3.21Z"/>
    <path class="cls-2" d="M674.62,213.32v22.81h-3.21v-22.81h3.21Z"/>
    <path class="cls-2" d="M666.81,236.24h-3.21v-2.65h-.06c-1.23,2.09-3.48,3.08-5.79,3.08-5.76,0-9.06-4.41-9.06-8.91,0-4.16,2.93-9.06,9.06-9.06,2.37,0,4.56.99,5.79,2.87h.06v-2.4h3.21v17.07ZM663.66,227.74c0-3.64-2.62-6.1-5.92-6.1-3.94,0-5.86,3.42-5.86,6.1,0,3.08,2.43,6.01,5.82,6.01s5.95-2.74,5.95-6.01Z"/>
    <path class="cls-2" d="M644.07,219.06v17.07h-3.21v-17.07h3.21ZM644.07,213.32v3.76h-3.21v-3.76h3.21Z"/>
    <path class="cls-2" d="M636.26,224.84h-3.54c-.52-1.08-1.76-3.21-4.81-3.21-4.13,0-5.61,3.45-5.61,6.04,0,2.96,1.88,6.07,5.55,6.07,2.4,0,4.04-1.39,4.84-3.14h3.58c-1.29,3.79-4.62,6.07-8.41,6.07-5.61,0-8.75-4.59-8.75-9,0-4.62,3.39-8.97,8.78-8.97,4.84,0,7.74,3.61,8.38,6.13Z"/>
    <path class="cls-2" d="M614.38,229.09h-14.15c.8,3.3,3.45,4.65,5.61,4.65,2.37,0,4.1-1.39,4.87-2.87h3.21c-1.63,4.41-5.55,5.79-8.2,5.79-4.84,0-8.69-4.16-8.69-9,0-5.12,3.94-8.97,8.75-8.97s8.66,3.76,8.69,8.75c0,.55-.06,1.42-.09,1.63ZM600.23,226.63h11.03c-.15-2.5-2.43-4.99-5.52-4.99s-5.36,2.5-5.52,4.99Z"/>
    <path class="cls-2" d="M574.51,241.94v-22.77h2.93v2.62h.06c1.54-2.22,3.88-3.08,6.07-3.08,5.79,0,8.84,4.65,8.84,9.21,0,4.32-3.24,8.75-8.63,8.75-3.57,0-5.36-1.82-6.01-2.9h-.06v8.17h-3.21ZM589.21,227.74c0-3.05-2.37-6.1-5.86-6.1s-5.7,2.9-5.7,6.04c0,3.45,2.56,6.07,5.79,6.07,3.02,0,5.76-2.4,5.76-6.01Z"/>
    <path class="cls-2" d="M569.5,223.7h-3.21c-.18-1.39-1.02-2.07-2.19-2.07s-2,.74-2,1.82c0,1.42,1.23,1.79,2.65,2.22,1.32.4,5.15,1.48,5.15,5.55,0,3.02-2.1,5.45-5.73,5.45-2.16,0-6.04-1.36-6.04-6.04h3.21c.12,1.91,1.11,3.11,2.9,3.11,1.45,0,2.47-.89,2.47-2.34s-1.33-2.03-2.99-2.62c-1.85-.68-4.81-1.51-4.81-5.15,0-2.53,2.13-4.93,5.36-4.93,1.94,0,5.15,1.2,5.24,4.99Z"/>
    <path class="cls-2" d="M553.42,229.09h-14.15c.8,3.3,3.45,4.65,5.61,4.65,2.37,0,4.1-1.39,4.87-2.87h3.21c-1.63,4.41-5.55,5.79-8.2,5.79-4.84,0-8.69-4.16-8.69-9,0-5.12,3.95-8.97,8.75-8.97s8.66,3.76,8.69,8.75c0,.55-.06,1.42-.09,1.63ZM539.27,226.63h11.03c-.15-2.5-2.43-4.99-5.52-4.99s-5.36,2.5-5.52,4.99Z"/>
    <path class="cls-2" d="M525.93,228.98h-14.15c.8,3.3,3.45,4.65,5.61,4.65,2.37,0,4.1-1.39,4.87-2.87h3.21c-1.63,4.41-5.55,5.79-8.2,5.79-4.84,0-8.69-4.16-8.69-9,0-5.12,3.95-8.97,8.75-8.97s8.66,3.76,8.69,8.75c0,.55-.06,1.42-.09,1.63ZM511.78,226.51h11.03c-.15-2.5-2.43-4.99-5.52-4.99s-5.36,2.5-5.52,4.99Z"/>
    <path class="cls-2" d="M503.96,236.13h-2.96v-2.43h-.06c-1.36,1.88-3.54,2.87-6.04,2.87-5.67,0-8.88-4.41-8.88-8.91,0-4.16,2.84-9.06,8.88-9.06,2.37,0,4.56.99,5.79,2.56h.06v-7.83h3.21v22.81ZM501.01,227.62c0-3.64-2.62-6.1-5.92-6.1-3.95,0-5.86,3.42-5.86,6.1,0,3.08,2.43,6.01,5.82,6.01s5.95-2.74,5.95-6.01Z"/>
    <path class="cls-2" d="M476.48,228.03h-14.15c.8,3.3,3.45,4.65,5.61,4.65,2.37,0,4.1-1.39,4.87-2.87h3.21c-1.63,4.41-5.55,5.79-8.2,5.79-4.84,0-8.69-4.16-8.69-9,0-5.12,3.94-8.97,8.75-8.97s8.66,3.76,8.69,8.75c0,.56-.06,1.42-.09,1.63ZM462.34,225.57h11.03c-.15-2.5-2.43-4.99-5.52-4.99s-5.36,2.5-5.52,4.99ZM465.63,216.35l-1.29-2.31,6.87-3.95,1.36,2.5-6.93,3.76Z"/>
    <path class="cls-2" d="M451.53,235.21h-3.21v-14.15h-1.51v-2.93h1.51v-.83c0-1.82.71-3.08,2.03-3.98,1.39-.83,2.28-.93,4.16-.93v2.93c-2.13,0-2.99.77-2.99,1.97v.83h2.99v2.93h-2.99v14.15Z"/>
    <path class="cls-2" d="M442.2,235.32h-3.21v-2.65h-.06c-1.23,2.1-3.48,3.08-5.79,3.08-5.76,0-9.06-4.41-9.06-8.91,0-4.16,2.93-9.06,9.06-9.06,2.37,0,4.56.99,5.79,2.87h.06v-2.4h3.21v17.07ZM439.05,226.81c0-3.64-2.62-6.1-5.92-6.1-3.94,0-5.86,3.42-5.86,6.1,0,3.08,2.43,6.01,5.82,6.01s5.95-2.74,5.95-6.01Z"/>
    <path class="cls-2" d="M419.46,217.89h-4.01c-.68-.77-2.71-3.21-6.41-3.21-4.75,0-8.48,3.91-8.48,8.72s3.95,8.84,8.41,8.84c2.4,0,4.65-1.17,6.23-3.02h4.1c-2.53,4.47-6.81,6.07-10.36,6.07-6.47,0-11.71-5.45-11.71-11.93s5.36-11.74,11.74-11.74c1.73,0,4.5.43,6.96,2.22,2.07,1.48,2.93,3.02,3.51,4.04Z"/>
  </g>
</svg>